<?xml version="1.0" standalone="no"?>
<!DOCTYPE svg PUBLIC "-//W3C//DTD SVG 20010904//EN"
 "http://www.w3.org/TR/2001/REC-SVG-20010904/DTD/svg10.dtd">
<svg version="1.0" xmlns="http://www.w3.org/2000/svg"
 width="632.000000pt" height="674.000000pt" viewBox="0 0 632.000000 674.000000"
 preserveAspectRatio="xMidYMid meet">

<g transform="translate(0.000000,674.000000) scale(0.100000,-0.100000)"
fill="#000000" stroke="none">
<path d="M0 3370 l0 -3370 3160 0 3160 0 0 3370 0 3370 -3160 0 -3160 0 0
-3370z m3275 2790 c71 -34 85 -52 85 -110 0 -29 -7 -67 -16 -85 -15 -32 -81
-85 -105 -85 -28 0 16 -223 82 -424 59 -177 171 -355 250 -397 45 -24 123 -24
176 1 110 50 277 195 380 330 98 129 158 250 123 250 -18 0 -60 74 -60 106 0
37 36 94 70 111 30 15 99 17 133 4 48 -19 77 -61 77 -114 0 -65 -43 -113 -114
-126 -26 -5 -54 -15 -62 -23 -15 -15 -56 -174 -75 -291 -41 -265 60 -454 233
-434 98 12 276 135 392 271 l49 56 -18 40 c-33 73 9 140 88 140 54 0 93 -27
102 -71 15 -67 -35 -119 -113 -119 -35 0 -46 -6 -89 -53 -148 -163 -328 -438
-398 -609 l-34 -83 -1239 -3 -1238 -2 -33 83 c-38 100 -139 279 -205 368 -85
114 -91 122 -119 158 -16 20 -51 60 -79 89 -41 43 -55 52 -84 52 -42 0 -89 23
-104 49 -5 11 -10 37 -10 58 0 88 108 127 172 63 32 -32 33 -52 12 -142 -6
-25 4 -38 92 -126 203 -201 357 -264 467 -191 89 59 127 196 107 381 -13 118
-34 228 -53 283 -13 37 -18 41 -63 51 -64 14 -88 27 -113 63 -92 129 121 272
223 150 48 -57 46 -112 -7 -166 l-31 -33 18 -37 c45 -94 213 -331 287 -404
135 -134 266 -179 374 -130 133 60 277 346 351 694 23 110 21 118 -33 147 -68
36 -88 69 -88 140 1 44 6 64 20 80 53 58 147 76 220 40z m1575 -1847 c14 -43
61 -97 104 -120 l30 -15 -27 -15 c-15 -7 -27 -19 -27 -27 0 -7 -15 -30 -34
-50 -24 -28 -36 -52 -40 -87 -12 -87 -9 -1705 3 -1727 6 -11 17 -26 24 -34 7
-7 20 -26 30 -41 10 -15 29 -33 43 -39 31 -14 31 -26 0 -34 -15 -3 -29 -17
-35 -34 -5 -16 -21 -36 -34 -45 -18 -11 -27 -29 -32 -60 -3 -25 -9 -45 -13
-45 -4 0 -14 20 -21 45 -7 25 -17 45 -21 45 -4 0 -51 -53 -105 -117 -53 -65
-104 -118 -113 -118 -8 0 -22 14 -31 30 -9 17 -41 75 -70 130 -30 55 -71 129
-91 165 -21 36 -50 88 -65 115 -55 100 -278 501 -308 555 -17 30 -59 106 -94
168 -34 63 -63 117 -63 121 0 14 -38 42 -44 33 -3 -5 -6 -534 -6 -1175 l-1
-1165 -28 -39 c-44 -58 -233 -304 -349 -452 -57 -73 -109 -130 -115 -128 -9 3
-12 383 -12 1548 0 849 2 1760 5 2024 l5 480 230 3 c127 1 240 0 251 -3 14 -3
34 -29 58 -74 20 -39 98 -179 173 -313 74 -134 159 -287 188 -340 87 -158 107
-190 116 -181 5 5 10 211 11 458 l3 450 180 5 c154 4 184 8 208 24 15 10 27
22 27 27 0 5 5 9 12 9 20 0 48 32 48 57 0 35 17 27 30 -14z m-3286 -96 c17 -3
306 -6 641 -6 336 -1 663 -4 728 -8 113 -6 118 -7 123 -30 4 -13 4 -355 1
-759 -4 -699 -6 -736 -23 -756 -11 -11 -40 -44 -66 -72 -26 -28 -48 -57 -48
-65 0 -8 29 -45 65 -82 l65 -67 2 -894 c0 -491 2 -911 3 -933 1 -22 3 -52 4
-67 1 -23 6 -28 29 -29 l27 0 -25 -12 c-14 -6 -27 -12 -29 -14 -3 -2 -7 -63
-10 -135 -4 -74 -10 -133 -16 -134 -5 -1 -37 29 -70 68 -55 66 -60 69 -69 49
-14 -32 -24 -25 -31 22 -6 38 -11 45 -41 56 -18 7 -43 25 -54 41 -11 16 -34
31 -50 35 -42 9 -47 24 -10 31 17 4 33 11 36 16 8 12 -42 86 -186 278 -111
149 -165 220 -590 780 -107 140 -249 328 -317 417 l-123 162 0 938 c-1 759 -3
934 -13 915 -13 -22 -13 -22 -26 15 -8 20 -27 51 -42 68 -16 16 -29 33 -29 37
0 4 -17 16 -37 26 -34 18 -35 20 -15 26 37 12 112 93 118 128 11 62 17 64 32
11 13 -45 18 -52 46 -56z"/>
<path d="M2027 3693 c-4 -3 -7 -78 -7 -167 l0 -160 252 -253 c139 -139 258
-253 265 -253 10 0 13 86 13 420 l0 420 -258 0 c-142 0 -262 -3 -265 -7z"/>
<path d="M2027 2508 c-14 -229 -34 -178 186 -469 258 -343 310 -408 325 -409
9 0 12 55 12 242 l0 243 -252 252 c-139 139 -256 253 -259 253 -3 0 -9 -51
-12 -112z"/>
</g>
</svg>
